PathFileType	3	(X/Y/Z)	D:\Jess\Healthy\Labelled\HA23\20251031\SRRun01.trc
DataRate	CameraRate	NumFrames	NumMarkers	Units	OrigDataRate	OrigDataStartFrame	OrigNumFrames
250.0	250.0	4	37	mm	250.0	35625	2501
Frame#	Time	C7			T10			CLAV			LSHO			RSHO			LASIS			RASIS			LPSIS			RPSIS			LILCR			RILCR			LGTR			LTHI			LLTHI			LLEP			LMEP			LPSH			LLSH			LDSH			LLMAL			LMMAL			LTOE			L5TH			LHEE			RGTR			RTHI			RLTHI			RLEP			RMEP			RPSH			RLSH			RDSH			RLMAL			RMMAL			RTOE			R5TH			RHEE			
		X1	Y1	Z1	X2	Y2	Z2	X3	Y3	Z3	X4	Y4	Z4	X5	Y5	Z5	X6	Y6	Z6	X7	Y7	Z7	X8	Y8	Z8	X9	Y9	Z9	X10	Y10	Z10	X11	Y11	Z11	X12	Y12	Z12	X13	Y13	Z13	X14	Y14	Z14	X15	Y15	Z15	X16	Y16	Z16	X17	Y17	Z17	X18	Y18	Z18	X19	Y19	Z19	X20	Y20	Z20	X21	Y21	Z21	X22	Y22	Z22	X23	Y23	Z23	X24	Y24	Z24	X25	Y25	Z25	X26	Y26	Z26	X27	Y27	Z27	X28	Y28	Z28	X29	Y29	Z29	X30	Y30	Z30	X31	Y31	Z31	X32	Y32	Z32	X33	Y33	Z33	X34	Y34	Z34	X35	Y35	Z35	X36	Y36	Z36	X37	Y37	Z37	

626	142.496	861.9004874887937	1460.018452047932	-1153.080019308346	820.6645738995762	1237.076307979496	-1105.775098989558	904.5281306507444	1370.330317819964	-1275.142621316167	738.6334272713389	1460.547083665872	-1239.581257815975	1008.228783706835	1428.776543518763	-1143.55744527772	730.2603677481309	973.7177981636627	-1251.06359565054	983.6804109279531	1000.120675707721	-1231.691518309296	844.7889218351351	1039.315882917915	-1060.165068813231	877.3581499801672	1038.519959289104	-1058.705366864169	700.9665784349154	1049.523298575469	-1219.403084844299	1025.811803309152	1073.477824942737	-1169.52654852415	664.4696560588669	906.6507824374153	-1150.291546643788	791.2269469362974	702.3152512196517	-1199.0066906955	720.8004395387633	665.8005587153942	-1066.03861758881	744.2902890138942	543.7821186657435	-984.8732598107134	nan	nan	nan	811.0527272467681	452.7510395383287	-993.5844974001286	752.2028722530641	382.424148372523	-870.5697099834765	808.1872687981225	291.7303440242641	-896.3185468459034	787.4774493515885	191.6531277532894	-787.6313540502553	nan	nan	nan	835.7462580024969	61.16131545186004	-853.8860035362258	790.3693239466508	53.55668872400642	-816.9173703755616	820.2203948637082	214.0700275535045	-713.1818066075969	1053.089460937902	932.1397838087291	-1212.172376907178	948.8980930310065	798.2061887882319	-1339.353046654823	1010.392032030577	677.9774453099541	-1273.961392430695	982.5409141584325	529.2750315733559	-1311.793087448028	nan	nan	nan	937.3567579937938	467.6512521033718	-1362.222869682831	988.5442207073141	355.4037483488625	-1288.162136420875	926.8447711369342	276.5489267469394	-1338.763740768538	955.551258598497	134.5627188077421	-1292.396410790971	nan	nan	nan	941.2216439168797	106.3833100193335	-1432.154060203237	978.9991669857483	70.83736002571992	-1403.180919655692	909.1334222562222	93.76585113637475	-1224.16592923484	
627	142.5	862.1134580905698	1460.520219052597	-1153.257931779009	820.3671140397576	1237.994780174284	-1106.190359718709	905.1833216206714	1371.315790466683	-1275.100938222525	739.5692262013923	1461.220680027189	-1240.050334467927	1008.276591325169	1428.902309512151	-1143.485522502455	730.8338436637067	974.1497591679497	-1251.831659489972	983.4241743920178	1001.350063806591	-1231.930228242234	844.5131567813736	1040.823408854397	-1061.226190011175	877.0449020232235	1040.118581047334	-1059.575807882916	701.5191156425284	1050.329799193845	-1220.956966656889	1025.566683921419	1074.942715071777	-1170.053336274851	664.1093867635959	907.5996979403021	-1151.312104776609	790.8519889632857	702.591180983852	-1198.809826544153	720.8795956780351	667.388349224722	-1065.246565784478	744.4972185908505	545.5410467854458	-983.879489356434	nan	nan	nan	810.7718074585626	453.8394425573618	-992.2896260776745	752.1849956038354	385.3770436111237	-868.1024247098229	807.4659367739473	293.850115036537	-893.1451788693442	786.3923268130773	195.011554615577	-783.6228498690102	nan	nan	nan	835.5232500364622	62.3924203094202	-845.9741230665426	790.1326454057461	55.83691978058201	-808.8508274064197	818.5990957397713	219.7018150919621	-709.9960103908006	1052.966312491973	933.5636445687538	-1212.712622413223	948.8626883710082	797.7481211659079	-1338.947903228734	1010.32300782222	678.1470913503005	-1271.77139637374	982.1906474855712	528.8087268179502	-1309.969373713104	nan	nan	nan	936.8710308835714	468.0535657452488	-1361.731344735351	988.3282525762284	353.9974796300829	-1291.189552464087	926.4032043655266	276.6181397559739	-1344.074400117595	955.0271496182978	133.0083174009484	-1302.533169567853	nan	nan	nan	939.7204875163769	109.8761962316917	-1443.159168504985	977.5756139605858	73.14201969315994	-1415.743651156722	909.1428683190223	89.64548953439427	-1235.436505758826	
628	142.504	862.3358497590521	1460.8516700843	-1153.449823310323	820.173521197627	1238.708590240351	-1106.554261419318	905.8146390786311	1372.130083097991	-1275.072195566713	740.4413643876965	1461.709590691645	-1240.447496086197	1008.391206848064	1428.890951296189	-1143.477952387481	731.3363816127844	974.5841320790844	-1252.507661837981	983.2073384060122	1002.349677844639	-1232.163851002331	844.2317054694137	1042.147146818808	-1062.224048040398	876.7082908095141	1041.512832743482	-1060.379958677121	702.0116298524279	1051.118031723887	-1222.301014250115	1025.356101793407	1076.119511949472	-1170.494240881002	663.7283812113416	908.501381248475	-1152.251637112381	790.4352859786156	702.8485824042797	-1198.901286872643	720.982681362355	668.751240905603	-1064.821100880537	744.7724819914549	546.920199110711	-983.4723172948146	nan	nan	nan	810.5560239532707	454.558014888814	-991.4141258103458	752.1600267809152	388.0801710246835	-866.0630187729782	806.8118740278034	295.7657007262127	-890.1437912447454	785.2570593358604	198.3617278201353	-779.658694078539	nan	nan	nan	835.2749630843296	63.79547807957901	-838.0401179897297	789.8693957038846	58.25856624850088	-800.7833052323065	816.8877779081771	225.3017184922302	-706.8935157300249	1052.794454705507	934.6495045161699	-1213.175419625725	948.8015270973476	796.8858661032053	-1338.411862353892	1010.433546376552	678.0698637192326	-1269.699130288199	981.8851104085907	528.2412781310212	-1308.260909512973	nan	nan	nan	936.3862820780078	468.3410540367444	-1361.167831512695	988.1556129925566	352.7083025027496	-1293.997772397714	925.98511856798	276.7565141289321	-1348.925553689926	954.5635893479451	131.722991637366	-1311.97926145199	nan	nan	nan	938.2317106707793	113.3819640778664	-1453.259951593192	976.1613239839443	75.5483226016252	-1427.373903584991	909.2333769168258	85.94075052288271	-1245.984162466256	
629	142.508	862.5710475566279	1461.014852236391	-1153.653361359976	820.083150610066	1239.215632243758	-1106.861387088931	906.4209560843452	1372.771819160203	-1275.055540463767	741.2443729747071	1462.018452669513	-1240.773862372538	1008.574625016832	1428.74576986695	-1143.532106976593	731.7664146263695	975.0185470369413	-1253.092749992498	983.0293350131767	1003.122160761342	-1232.389974995219	843.9474303351666	1043.274603002703	-1063.151604615971	876.3531622909736	1042.68824910728	-1061.112051056478	702.4446680723212	1051.881822479451	-1223.42621142451	1025.182113580009	1077.009157338648	-1170.85271715068	663.3405666664847	909.3414939252945	-1153.107989896777	789.9983679527639	703.0797463399427	-1199.295515722774	721.1132079888421	669.8539366757497	-1064.779853313055	745.1117194741635	547.8936063732026	-983.6524026624704	nan	nan	nan	810.409294288577	454.896481363212	-990.9428805470245	752.1193609241984	390.5178090963943	-864.4466675278484	806.2229285834768	297.4789572424656	-887.3058006437111	784.0727510204553	201.7096290511402	-775.733617059157	nan	nan	nan	834.9947088670948	65.38370813278765	-830.0939824244095	789.5731170541191	60.82622860954785	-792.7254001757832	815.0940726067552	230.8709055872221	-703.8640917611541	1052.578920819377	935.3881569989185	-1213.557874804519	948.7043053311135	795.6317256534701	-1337.733448814	1010.712150339877	677.7464783534504	-1267.779155420281	981.6244665226019	527.574657559453	-1306.678405391723	nan	nan	nan	935.9045283941055	468.5091394397795	-1360.535140702131	988.0224734001713	351.5167956542969	-1296.565819549985	925.5897871243071	276.9269916130752	-1353.291467841695	954.1572324951771	130.6547179722885	-1320.672747984013	nan	nan	nan	936.7657087668849	116.8077547683267	-1462.416098278885	974.7619080353874	77.96286995605482	-1438.010304082641	909.3889389018775	82.61700633155974	-1255.730298482775	
